:SAMPLES-PER-SECOND 30
:FRAME-RANGE 1-2775
:FULLY-SPECIFIED
:DEGREES
261
root  -10.1872 39.3877 -19.5164 -172.154 -59.8268 179.176
RightUpLeg  -5.09571 -12.1845 -13.0145
RightLeg  4.53723 -2.34919 0.758034
RightFoot  -10.1451 -0.315781 23.2757
RightToes  -5.28216e-011 1.2921e-014 -6.02303e-014
Spine  11.6727 1.20713 10.2439
Spine1  0.102474 3.1905 -6.15829
HEad  -3.15638 -19.4278 -2.81326
LeftShoulder1  1.52166 -0.372115 -33.2061
LeftArm  28.3113 15.5644 -30.6217
LeftForeArm  -5.75614 -20.4388 -7.23097
LeftHand  0.249902 -0.900428 -4.53395
RightShoulder  10.3435 13.7442 52.4609
RightArm  -2.99806 6.46653 18.1904
RightForeArm  13.5211 46.3713 10.8047
RightHand  -0.31131 0.0401187 -6.69795
LeftUpLeg  -24.9019 20.6296 4.45719
LeftLeg  12.2149 9.3682 0.534881
LeftFoot  -0.446889 0.541277 -5.6466
LeftToes  -2.158e-010 -1.26819e-010 -1.05346e-011
262
root  -11.1484 39.2348 -19.1921 -172.305 -60.12 179.464
RightUpLeg  -3.44037 -12.683 -14.2189
RightLeg  3.33811 -1.84891 0.634015
RightFoot  -9.53505 -0.441766 23.5554
RightToes  -5.28216e-011 1.2921e-014 -6.02303e-014
Spine  11.0679 1.49231 9.83668
Spine1  0.293041 3.60306 -7.00634
HEad  -3.03324 -18.7127 -2.72378
LeftShoulder1  1.50194 -0.32863 -33.1367
LeftArm  24.7314 16.5317 -29.8949
LeftForeArm  -2.86843 -17.0116 -10.4045
LeftHand  0.260231 -0.634737 -4.98081
RightShoulder  10.6498 14.3149 52.2855
RightArm  3.36092 4.60703 20.0937
RightForeArm  14.8384 45.7807 10.4759
RightHand  -0.259078 0.301468 -5.34576
LeftUpLeg  -24.8693 21.5601 3.46158
LeftLeg  13.0468 11.4309 1.3433
LeftFoot  0.799737 0.499426 -4.74126
LeftToes  -2.158e-010 -1.26819e-010 -1.05346e-011
263
root  -12.2231 39.086 -18.8235 -171.584 -60.6688 178.42
RightUpLeg  -1.26791 -13.3821 -16.203
RightLeg  2.20236 -1.84891 0.120605
RightFoot  -9.10807 -0.534258 23.8722
RightToes  -5.28216e-011 1.2921e-014 -6.02303e-014
Spine  10.5979 1.70756 8.42838
Spine1  0.590751 3.85526 -7.58801
HEad  -3.07021 -17.9129 -2.38795
LeftShoulder1  1.48808 -0.286978 -33.2006
LeftArm  19.9721 17.199 -28.9756
LeftForeArm  0.675884 -13.1442 -13.4056
LeftHand  0.268329 -0.240773 -5.38194
RightShoulder  10.807 14.4863 52.5427
RightArm  7.8357 3.11782 20.8065
RightForeArm  15.4911 45.261 10.2292
RightHand  -0.21021 0.563106 -4.17875
LeftUpLeg  -24.2119 21.2044 1.98852
LeftLeg  13.8965 10.9741 1.52651
LeftFoot  3.78574 0.498867 -3.93005
LeftToes  -2.158e-010 -1.26819e-010 -1.05346e-011
264
root  -13.3405 38.9911 -18.4587 -168.682 -61.9938 174.774
RightUpLeg  0.619947 -14.1195 -19.0265
RightLeg  2.67888 -3.47909 -1.22674
RightFoot  -9.21601 -0.491555 22.8046
RightToes  -5.28216e-011 1.2921e-014 -6.02303e-014
Spine  10.1935 1.83922 5.03694
Spine1  0.923227 3.65377 -7.11063
HEad  -3.28259 -17.2424 -1.44395
LeftShoulder1  1.51594 -0.335158 -33.4328
LeftArm  15.5306 16.9232 -27.9069
LeftForeArm  3.37824 -8.89689 -15.8495
LeftHand  0.280069 0.053862 -6.14951
RightShoulder  10.7247 14.1107 53.2335
RightArm  10.6271 2.18479 20.8333
RightForeArm  15.7182 43.6791 9.63057
RightHand  -0.234798 0.677946 -4.58266
LeftUpLeg  -24.394 21.8087 -1.83518
LeftLeg  16.5077 8.4466 2.42797
LeftFoot  1.34224 0.329111 -3.03482
LeftToes  -2.158e-010 -1.26819e-010 -1.05346e-011
265
root  -14.4624 38.9337 -18.0786 -166.423 -63.6817 171.978
RightUpLeg  0.571998 -12.115 -19.6608
RightLeg  6.75373 -6.47772 -4.3735
RightFoot  -11.8454 -0.00999137 16.0253
RightToes  -5.28216e-011 1.2921e-014 -6.02303e-014
Spine  10.0207 1.90744 2.7816
Spine1  0.778431 3.46629 -6.70609
HEad  -2.87609 -17.067 -0.83492
LeftShoulder1  1.58004 -0.476981 -33.6363
LeftArm  12.9872 15.8332 -26.9178
LeftForeArm  4.4747 -5.05785 -17.4528
LeftHand  0.281638 0.432219 -6.71366
RightShoulder  10.2404 13.2854 53.3307
RightArm  12.8034 1.41961 20.9957
RightForeArm  14.7087 41.1116 8.8212
RightHand  -0.252754 0.706066 -4.90722
LeftUpLeg  -23.7056 21.4618 -4.34943
LeftLeg  17.9734 6.67485 2.56608
LeftFoot  -0.701695 0.222101 -2.34033
LeftToes  -2.158e-010 -1.26819e-010 -1.05346e-011
266
root  -15.499 38.9614 -17.7076 -165.186 -64.5857 170.524
RightUpLeg  -2.15148 0.678422 -18.7144
RightLeg  15.8411 -19.1578 -7.82416
RightFoot  -13.6562 0.00127454 4.64576
RightToes  -5.28216e-011 1.2921e-014 -6.02303e-014
Spine  9.98103 1.95765 1.85698
Spine1  0.564413 3.58446 -7.19418
HEad  -2.14804 -16.7788 -0.584097
LeftShoulder1  1.61829 -0.538489 -33.9756
LeftArm  12.6952 14.5548 -25.9058
LeftForeArm  3.68674 -3.17585 -18.1544
LeftHand  0.276091 0.822665 -7.21226
RightShoulder  9.96462 12.8317 53.3379
RightArm  15.2684 1.04649 21.0264
RightForeArm  12.0133 37.6413 7.91491
RightHand  -0.254166 0.829353 -4.84763
LeftUpLeg  -22.5345 20.4395 -5.66715
LeftLeg  18.6614 6.64188 2.67981
LeftFoot  -2.71062 0.156542 -1.85859
LeftToes  -2.158e-010 -1.26819e-010 -1.05346e-011
267
root  -16.4476 38.954 -17.4512 -165.04 -65.5933 169.489
RightUpLeg  -4.62056 4.88474 -17.6395
RightLeg  24.5109 -18.9338 -9.37894
RightFoot  -14.9114 0.132527 7.49252
RightToes  -5.28216e-011 1.2921e-014 -6.02303e-014
Spine  10.3223 1.7743 0.41436
Spine1  0.976656 3.30511 -7.563
HEad  -1.80935 -15.9577 -0.744629
LeftShoulder1  1.62089 -0.511995 -34.2997
LeftArm  12.7123 13.031 -25.4677
LeftForeArm  2.99433 -2.35586 -18.4566
LeftHand  0.25539 1.10763 -7.17916
RightShoulder  10.0688 13.0484 53.1941
RightArm  18.5906 1.09599 21.039
RightForeArm  8.37761 33.0868 6.86264
RightHand  -0.285164 1.18213 -5.16681
LeftUpLeg  -20.6018 18.3686 -5.93759
LeftLeg  19.681 7.61858 2.96304
LeftFoot  -4.71895 0.120698 -1.59583
LeftToes  -2.158e-010 -1.26819e-010 -1.05346e-011
268
root  -17.4269 39.0471 -17.2295 -165.963 -67.2872 169.668
RightUpLeg  -7.17601 4.6916 -15.0272
RightLeg  30.7345 -14.2988 -9.23027
RightFoot  -15.7355 0.219688 8.49906
RightToes  -5.28216e-011 1.2921e-014 -6.02303e-014
Spine  10.2549 1.26108 -0.352751
Spine1  1.64171 2.60737 -7.07788
HEad  -1.04418 -14.9463 -1.14238
LeftShoulder1  1.6275 -0.527525 -34.3083
LeftArm  11.7125 11.4524 -25.9469
LeftForeArm  3.67783 -1.68847 -18.5373
LeftHand  0.216089 1.2507 -6.34076
RightShoulder  9.97009 13.0215 52.7736
RightArm  23.3541 1.21165 21.1175
RightForeArm  3.61358 28.0852 5.87857
RightHand  -0.29597 1.37968 -5.2183
LeftUpLeg  -18.1187 17.064 -5.49295
LeftLeg  19.6062 7.59791 2.29748
LeftFoot  -6.31096 0.0931062 -1.25608
LeftToes  -2.158e-010 -1.26819e-010 -1.05346e-011
269
root  -18.3746 39.192 -17.0371 -166.115 -68.7145 169.877
RightUpLeg  -10.7581 3.94055 -12.3839
RightLeg  34.6338 -12.0082 -9.0196
RightFoot  -15.4073 0.24636 9.86976
RightToes  -5.28216e-011 1.2921e-014 -6.02303e-014
Spine  9.76771 1.01994 -1.44143
Spine1  1.43872 2.0446 -6.01822
HEad  0.282648 -14.2906 -1.31128
LeftShoulder1  1.67603 -0.67442 -34.056
LeftArm  9.98907 10.1269 -27.051
LeftForeArm  5.54286 -1.56869 -18.3255
LeftHand  0.190435 1.22715 -5.57621
RightShoulder  9.46393 12.3699 52.173
RightArm  29.54 0.726655 21.0043
RightForeArm  -2.31008 23.689 5.18633
RightHand  -0.298281 1.72852 -5.02839
LeftUpLeg  -15.8189 14.4442 -4.67849
LeftLeg  18.3715 9.01094 0.985869
LeftFoot  -7.26659 0.0859114 -1.18769
LeftToes  -2.158e-010 -1.26819e-010 -1.05346e-011
270
root  -19.3745 39.4038 -16.8574 -167.809 -70.4176 171.538
RightUpLeg  -13.458 2.62701 -9.17786
RightLeg  35.3648 -12.7393 -9.78295
RightFoot  -14.5444 0.181824 10.0185
RightToes  -5.28216e-011 1.2921e-014 -6.02303e-014
Spine  9.38455 0.523762 -1.77637
Spine1  1.34672 1.28868 -4.80837
HEad  1.25229 -13.5675 -1.08646
LeftShoulder1  1.65566 -0.675537 -33.5633
LeftArm  9.83043 9.13192 -28.5731
LeftForeArm  6.3892 -3.41879 -17.7139
LeftHand  0.180984 1.07622 -5.09652
RightShoulder  8.93293 11.6057 51.7518
RightArm  31.1728 0.00658631 20.2436
RightForeArm  -4.19666 20.1305 7.09893
RightHand  -0.281255 1.61454 -4.8183
LeftUpLeg  -12.8538 10.8625 -3.35326
LeftLeg  16.0935 11.2194 -0.279425
LeftFoot  -7.68638 0.0729506 -0.838856
LeftToes  -2.158e-010 -1.26819e-010 -1.05346e-011
